<svg width="100" height="100" viewBox="0 0 100 100" fill="none" xmlns="http://www.w3.org/2000/svg">
<circle cx="50" cy="50" r="50" fill="#131B2B"/>
<path d="M62.608 44H55.504C55.216 40.608 53.056 38.912 49.024 38.912C47.296 38.912 45.936 39.264 44.944 39.968C43.984 40.64 43.504 41.584 43.504 42.8C43.504 43.216 43.568 43.584 43.696 43.904C43.824 44.224 44.064 44.528 44.416 44.816C44.768 45.072 45.12 45.296 45.472 45.488C45.824 45.648 46.336 45.84 47.008 46.064C47.712 46.256 48.336 46.432 48.88 46.592C49.456 46.752 50.256 46.96 51.28 47.216C52.304 47.472 53.2 47.712 53.968 47.936C57.328 48.896 59.824 50.096 61.456 51.536C63.12 52.976 63.952 55.04 63.952 57.728C63.952 59.68 63.552 61.392 62.752 62.864C61.952 64.304 60.864 65.456 59.488 66.32C58.144 67.152 56.656 67.76 55.024 68.144C53.424 68.56 51.712 68.768 49.888 68.768C45.248 68.768 41.616 67.712 38.992 65.6C36.4 63.456 35.088 60.448 35.056 56.576H42.496C42.624 60.864 45.2 63.008 50.224 63.008C52.176 63.008 53.712 62.608 54.832 61.808C55.984 60.976 56.56 59.856 56.56 58.448C56.56 57.264 56.032 56.4 54.976 55.856C53.952 55.312 51.776 54.56 48.448 53.6C48.256 53.568 48.112 53.536 48.016 53.504C47.92 53.472 47.792 53.44 47.632 53.408C47.472 53.344 47.328 53.296 47.2 53.264C46.048 52.944 45.248 52.72 44.8 52.592C44.352 52.432 43.632 52.176 42.64 51.824C41.68 51.472 40.976 51.152 40.528 50.864C40.08 50.576 39.52 50.176 38.848 49.664C38.208 49.152 37.744 48.624 37.456 48.08C37.168 47.504 36.896 46.816 36.64 46.016C36.416 45.184 36.304 44.288 36.304 43.328C36.304 40.224 37.504 37.744 39.904 35.888C42.304 34.032 45.488 33.104 49.456 33.104C53.296 33.104 56.432 34.016 58.864 35.84C61.296 37.632 62.544 40.352 62.608 44Z" fill="#7992C4"/>
</svg>
