<svg width="36" height="50" viewBox="0 0 36 50" fill="none" xmlns="http://www.w3.org/2000/svg">
<path d="M17.7398 50L3.23288 45.984L0 9.82617H35.5231L32.2869 45.9785L17.7398 50Z" fill="#273759"/>
<path d="M29.5165 43.6761L32.2819 12.7822H17.7617V46.9257L29.5165 43.6761Z" fill="#273759"/>
<path d="M7.4113 26.193L7.80981 30.6276H17.7616V26.193H7.4113ZM6.61035 17.2173L7.01459 21.652H17.7616V17.2173H6.61035ZM17.7616 37.7102L17.7421 37.7154L12.7894 36.3818L12.4727 32.845H8.00854L8.6315 39.8081L17.7411 42.3297L17.7616 42.3241V37.7102Z" fill="#EBEBEB"/>
<path d="M8.36011 0H13.7462V2.24612H10.6126V4.49224H13.7464V6.73822H8.36011V0ZM14.8235 0H20.2097V1.95314H17.076V2.34373H20.2097V6.83598H14.8237V4.78495H17.9574V4.39434H14.8234V0H14.8235ZM21.287 0H26.6732V1.95314H23.5395V2.34373H26.6732V6.83598H21.287V4.78495H24.4208V4.39434H21.2872V0H21.287Z" fill="white"/>
<path d="M28.0834 26.193L28.8862 17.2173H17.7462V21.652H24.0126L23.6079 26.193H17.7462V30.6276H23.2224L22.706 36.379L17.7461 37.714V42.3276L26.863 39.8081L26.9298 39.0588L27.9749 27.3838L28.0834 26.193Z" fill="white"/>
</svg>
