<svg width="87" height="50" viewBox="0 0 87 50" fill="none" xmlns="http://www.w3.org/2000/svg">
<path d="M86.171 48.6557C84.9169 49.1301 83.5325 49.129 82.2791 48.6528C81.0256 48.1766 79.9898 47.2581 79.3671 46.0706L66.98 28.9405L65.1848 26.5457L50.8122 46.0921C50.2269 47.2298 49.2473 48.1153 48.0565 48.5832C46.8658 49.051 45.5454 49.0691 44.3422 48.6342L62.8618 23.7882L45.6348 1.34427C46.8734 0.897889 48.2281 0.891972 49.4707 1.32752C50.7132 1.76306 51.7677 2.61346 52.4566 3.73552L65.2961 21.0774L78.2074 3.80733C78.7972 2.68993 79.7771 1.82822 80.9607 1.38603C82.1443 0.943827 83.4491 0.951968 84.6271 1.4089L77.9417 10.2809L68.8865 22.0684C68.6351 22.2927 68.4339 22.5676 68.2961 22.8752C68.1583 23.1827 68.0871 23.5159 68.0871 23.8528C68.0871 24.1898 68.1583 24.523 68.2961 24.8305C68.4339 25.1381 68.6351 25.413 68.8865 25.6373L86.1351 48.6593L86.171 48.6557ZM0.00722399 23.4794L1.51522 16.0292C5.6586 1.2976 22.5481 -4.83131 34.1668 4.28845C40.9707 9.63464 42.669 17.2033 42.3351 25.7342H4.00699C3.38584 40.9686 14.3798 50.1673 28.4365 45.4674C30.7152 44.6472 32.7549 43.2745 34.3728 41.4723C35.9907 39.6702 37.1363 37.4949 37.707 35.1412C38.4502 32.75 39.6746 32.3407 41.9222 33.0301C41.5477 35.9469 40.5166 38.7408 38.9065 41.2016C37.2964 43.6625 35.1492 45.7262 32.6265 47.2375C28.4595 49.5168 23.6785 50.4202 18.9671 49.8186C14.2557 49.2169 9.85512 47.141 6.39465 43.8876C2.97305 40.0364 0.905112 35.1717 0.506297 30.0356C0.506297 29.1919 0.219061 28.402 0.0251763 27.6444C0.00769803 26.2573 -0.000679878 24.8702 4.30721e-05 23.483L0.00722399 23.4794ZM4.05367 22.4526H38.7159C38.5005 11.4083 31.5314 3.57395 22.2357 3.50214C11.888 3.35852 4.48452 11.0206 4.02854 22.4023L4.05367 22.4526Z" fill="white"/>
</svg>
