<svg width="34" height="50" viewBox="0 0 34 50" fill="none" xmlns="http://www.w3.org/2000/svg">
<path d="M8.33334 50.0002C12.9333 50.0002 16.6667 46.2668 16.6667 41.6668V33.3335H8.33334C3.73334 33.3335 0 37.0668 0 41.6668C0 46.2668 3.73334 50.0002 8.33334 50.0002Z" fill="#273759"/>
<path d="M0 24.9998C0 20.3998 3.73334 16.6665 8.33334 16.6665H16.6667V33.3332H8.33334C3.73334 33.3332 0 29.5998 0 24.9998Z" fill="#273759"/>
<path d="M0 8.33334C0 3.73333 3.73334 0 8.33334 0H16.6667V16.6667H8.33334C3.73334 16.6667 0 12.9333 0 8.33334Z" fill="#273759"/>
<path d="M16.6667 0H25.0001C29.6001 0 33.3334 3.73333 33.3334 8.33334C33.3334 12.9333 29.6001 16.6667 25.0001 16.6667H16.6667V0Z" fill="#273759"/>
<path d="M33.3334 24.9998C33.3334 29.5998 29.6001 33.3332 25.0001 33.3332C20.4001 33.3332 16.6667 29.5998 16.6667 24.9998C16.6667 20.3998 20.4001 16.6665 25.0001 16.6665C29.6001 16.6665 33.3334 20.3998 33.3334 24.9998Z" fill="#273759"/>
</svg>
