<svg width="50" height="50" viewBox="0 0 50 50" fill="none" xmlns="http://www.w3.org/2000/svg">
<path d="M49.0579 22.7726L27.227 0.94294C25.9706 -0.314313 23.9315 -0.314313 22.6735 0.94294L18.1402 5.47622L23.8909 11.2269C25.2272 10.7753 26.7596 11.0783 27.8249 12.1435C28.8952 13.2156 29.1961 14.7612 28.7335 16.1018L34.2756 21.6441C35.6165 21.1822 37.1636 21.481 38.2345 22.5537C39.7312 24.0498 39.7312 26.4746 38.2345 27.9717C36.7374 29.4691 34.3125 29.4691 32.8147 27.9717C31.6889 26.8448 31.4107 25.1915 31.9807 23.8045L26.8122 18.636L26.8116 32.2373C27.1863 32.4225 27.5285 32.6672 27.8249 32.9619C29.3216 34.458 29.3216 36.883 27.8249 38.3813C26.3278 39.8778 23.9018 39.8778 22.4069 38.3813C20.9101 36.883 20.9101 34.4582 22.4069 32.9621C22.7656 32.6032 23.1918 32.319 23.661 32.1259V18.3979C23.1911 18.2061 22.7646 17.9218 22.4069 17.5618C21.2728 16.4294 21.0001 14.7654 21.5812 13.373L15.9124 7.7036L0.943378 22.6716C-0.314459 23.93 -0.314459 25.9694 0.943378 27.2268L22.7746 49.0569C24.0315 50.3144 26.0702 50.3144 27.3286 49.0569L49.0577 27.3282C50.3151 26.0703 50.3151 24.0299 49.0577 22.7726" fill="#273759"/>
</svg>
