<svg width="36" height="50" viewBox="0 0 36 50" fill="none" xmlns="http://www.w3.org/2000/svg">
<path d="M35.124 9.82617L31.9241 45.9785L17.5405 50L3.19656 45.9841L0 9.82617H35.124Z" fill="#273759"/>
<path d="M17.562 46.9257L29.1847 43.6761L31.9191 12.7822H17.562V46.9257Z" fill="#273759"/>
<path d="M11.3416 21.652H17.5621V17.2173H6.53613L6.64132 18.407L7.72208 30.6276H17.5621V26.193H11.7436L11.3416 21.652ZM12.3327 32.845H7.91858L8.5346 39.8081L17.5418 42.3297L17.5621 42.3241V37.7102L17.5428 37.7154L12.6458 36.3818L12.3327 32.845Z" fill="#EBEBEB"/>
<path d="M3.26782 0H5.5024V2.22654H7.54656V0H9.78128V6.74252H7.5467V4.48474H5.50254V6.74252H3.26796V0H3.26782ZM12.7197 2.23598H10.7527V0H16.9228V2.23598H14.9547V6.74252H12.7201V2.23598H12.7199H12.7197ZM17.902 0H20.232L21.6652 2.36914L23.0972 0H25.4281V6.74252H23.2026V3.40056L21.6652 5.79789H21.6267L20.0884 3.40056V6.74252H17.902V0ZM26.5402 0H28.7754V4.5139H31.9178V6.74252H26.54V0H26.5402Z" fill="white"/>
<path d="M17.547 30.6276H22.9616L22.4511 36.379L17.5469 37.714V42.3276L26.5613 39.8081L26.6274 39.0588L27.6609 27.3838L27.7681 26.193H17.547V30.6276ZM17.547 21.6411V21.652H28.1683L28.2563 20.6552L28.4568 18.407L28.5619 17.2173H17.547V21.6412V21.6411Z" fill="white"/>
</svg>
