<svg width="50" height="50" viewBox="0 0 50 50" fill="none" xmlns="http://www.w3.org/2000/svg">
<path d="M0 0H50V50H0V0Z" fill="#273759"/>
<path d="M13.1467 41.7835L16.9729 39.4679C17.7111 40.7767 18.3826 41.8841 19.9933 41.8841C21.5373 41.8841 22.5109 41.2802 22.5109 38.931V22.9548H27.2096V38.9974C27.2096 43.864 24.3569 46.0793 20.1947 46.0793C16.4359 46.0793 14.2541 44.1326 13.1465 41.7831L13.1467 41.7835ZM29.7617 41.28L33.5875 39.065C34.5947 40.7097 35.9037 41.9179 38.2193 41.9179C40.1664 41.9179 41.4078 40.9445 41.4078 39.6019C41.4078 37.991 40.1324 37.4203 37.9844 36.4808L36.8099 35.9769C33.4199 34.5341 31.1713 32.7216 31.1713 28.8954C31.1713 25.3712 33.8563 22.686 38.0518 22.686C41.0389 22.686 43.1869 23.7267 44.7306 26.4453L41.0721 28.7949C40.2664 27.3517 39.3942 26.7812 38.0516 26.7812C36.6754 26.7812 35.8027 27.6538 35.8027 28.7949C35.8027 30.2044 36.6754 30.7753 38.6891 31.648L39.8636 32.1513C43.8578 33.8632 46.1065 35.6083 46.1065 39.5349C46.1065 43.7642 42.7838 46.0798 38.3199 46.0798C33.9569 46.0798 31.1375 43.999 29.7616 41.2802" fill="white"/>
</svg>
