<svg width="58" height="50" viewBox="0 0 58 50" fill="none" xmlns="http://www.w3.org/2000/svg">
<path d="M48.7503 34.1406C48.9946 34.0003 49.1978 33.7982 49.3394 33.5545C49.481 33.3109 49.556 33.0343 49.5569 32.7525L49.5858 23.4545C49.5866 23.1727 49.6616 22.8961 49.8032 22.6524C49.9448 22.4087 50.148 22.2065 50.3924 22.0662L55.4325 19.171C55.6768 19.0307 55.9537 18.9571 56.2354 18.9576C56.5171 18.958 56.7937 19.0325 57.0375 19.1736C57.2813 19.3147 57.4838 19.5174 57.6245 19.7615C57.7653 20.0055 57.8394 20.2822 57.8394 20.5639V37.468C57.8394 37.7506 57.7648 38.0282 57.6232 38.2728C57.4816 38.5174 57.278 38.7203 57.0328 38.8611L38.0113 49.7866C37.7684 49.9262 37.4931 49.9997 37.2129 50C36.9327 50.0003 36.6573 49.9273 36.414 49.7882L21.4864 41.2501C21.2405 41.1097 21.0361 40.9067 20.8938 40.6619C20.7516 40.417 20.6766 40.1388 20.6765 39.8556V31.332C20.6765 31.3225 20.6878 31.3162 20.6975 31.3207C20.7054 31.3257 20.7167 31.3207 20.7167 31.3094V31.2999C20.7167 31.2936 20.7198 31.287 20.7264 31.2839L33.0209 24.2209C33.0322 24.2144 33.0272 24.1967 33.0143 24.1967C33.0109 24.1967 33.0076 24.1954 33.0052 24.193C33.0028 24.1906 33.0015 24.1873 33.0015 24.1839L33.0256 15.8274C33.0268 15.5448 32.9534 15.2669 32.8128 15.0218C32.6723 14.7766 32.4696 14.5729 32.2251 14.4311C31.9807 14.2893 31.7031 14.2145 31.4206 14.2142C31.138 14.214 30.8603 14.2882 30.6156 14.4296L21.4783 19.695C21.2344 19.8354 20.958 19.9093 20.6766 19.9093C20.3952 19.9093 20.1187 19.8354 19.8748 19.695L10.7087 14.4171C10.4645 14.2765 10.1876 14.2026 9.90577 14.2027C9.62397 14.2029 9.34717 14.2772 9.10316 14.4182C8.85915 14.5591 8.6565 14.7618 8.51556 15.0058C8.37462 15.2498 8.30035 15.5266 8.30018 15.8084V30.9113C8.3004 31.1928 8.22664 31.4694 8.08632 31.7134C7.94599 31.9575 7.74401 32.1603 7.50061 32.3017C7.2572 32.4431 6.98092 32.5181 6.69943 32.5191C6.41794 32.5202 6.14112 32.4472 5.89669 32.3076L0.809754 29.3989C0.563429 29.2582 0.35875 29.0548 0.216523 28.8093C0.0742949 28.5639 -0.00041009 28.2852 1.69318e-06 28.0015L0.0451887 1.60322C0.0459094 1.32189 0.12049 1.04568 0.261471 0.802222C0.402451 0.558765 0.604888 0.356595 0.848531 0.215935C1.09217 0.0752762 1.36848 0.00105959 1.64981 0.000709878C1.93114 0.000360166 2.20763 0.0738896 2.45163 0.213943L19.8764 10.2215C20.1199 10.3614 20.3958 10.4349 20.6766 10.4349C20.9574 10.4349 21.2332 10.3614 21.4767 10.2215L38.8963 0.213491C39.1407 0.0731074 39.4177 -0.000518904 39.6996 2.75285e-06C39.9814 0.00052441 40.2581 0.0751757 40.502 0.216463C40.7459 0.35775 40.9483 0.560701 41.0889 0.804944C41.2295 1.04919 41.3035 1.32613 41.3032 1.60796V28.0123C41.3034 28.2948 41.2291 28.5723 41.0878 28.8169C40.9465 29.0615 40.7432 29.2645 40.4984 29.4055L31.3756 34.6594C31.1306 34.8006 30.9271 35.004 30.7859 35.2491C30.6447 35.4941 30.5706 35.7721 30.5713 36.055C30.5719 36.3378 30.6472 36.6155 30.7896 36.8599C30.9319 37.1043 31.1363 37.3068 31.382 37.4469L36.4142 40.3118C36.6574 40.4502 36.9325 40.5227 37.2123 40.5221C37.4921 40.5215 37.7669 40.4479 38.0095 40.3084L48.7505 34.1404L48.7503 34.1406ZM49.8058 10.4547C49.806 10.7388 49.8816 11.0179 50.0248 11.2633C50.1681 11.5087 50.3738 11.7118 50.6211 11.8517C50.8684 11.9917 51.1484 12.0636 51.4325 12.06C51.7167 12.0565 51.9948 11.9776 52.2385 11.8315L57.0586 8.93956C57.2965 8.79699 57.4935 8.59525 57.6303 8.35397C57.7672 8.11269 57.8392 7.84009 57.8394 7.56271V1.66919C57.8389 1.38517 57.7632 1.10635 57.6198 0.86115C57.4765 0.615947 57.2707 0.413124 57.0235 0.273346C56.7762 0.133568 56.4964 0.0618316 56.2124 0.0654464C55.9284 0.0690613 55.6504 0.147898 55.4068 0.293924L50.5869 3.1859C50.3489 3.32846 50.1519 3.53022 50.015 3.77155C49.8781 4.01287 49.8061 4.28553 49.8058 4.56297V10.4563V10.4547V10.4547Z" fill="#273759"/>
</svg>
