<svg width="51" height="50" viewBox="0 0 51 50" fill="none" xmlns="http://www.w3.org/2000/svg">
<path d="M46.9176 38.6716C44.1462 38.6025 41.9983 38.8797 40.1968 39.6417C39.6771 39.8494 38.8456 39.8496 38.7763 40.5079C39.0535 40.7851 39.0881 41.2355 39.3307 41.6164C39.7468 42.3092 40.4738 43.2446 41.1321 43.7299C41.8595 44.284 42.5873 44.8382 43.3491 45.3233C44.7003 46.1548 46.2248 46.6396 47.5412 47.4712C48.3036 47.9558 49.0653 48.5799 49.8275 49.0994C50.2086 49.3762 50.451 49.827 50.9362 50V49.8963C50.6935 49.5842 50.6242 49.134 50.3819 48.7876C50.0358 48.4411 49.6889 48.1293 49.3425 47.7828C48.3379 46.432 47.0908 45.254 45.7398 44.284C44.6313 43.5218 42.206 42.4826 41.7558 41.2007C41.7558 41.2007 41.7209 41.1662 41.6865 41.1316C42.4485 41.0623 43.3491 40.7851 44.0769 40.5772C45.2547 40.2652 46.3286 40.3347 47.5412 40.0229C48.0954 39.8843 48.6497 39.711 49.2039 39.5378V39.2262C48.5806 38.6025 48.1302 37.7712 47.4719 37.1822C45.7051 35.6575 43.7649 34.1681 41.7558 32.921C40.6817 32.2281 39.2958 31.7777 38.1527 31.1889C37.7373 30.9808 37.0442 30.877 36.8018 30.5306C36.178 29.7685 35.8315 28.764 35.3813 27.8631C34.3769 25.9576 33.4066 23.8445 32.5404 21.8354C31.9172 20.4841 31.5361 19.1329 30.7738 17.886C27.2056 11.9966 23.3255 8.42837 17.367 4.92922C16.0851 4.20183 14.5608 3.89001 12.9326 3.50909C12.0668 3.47424 11.2005 3.40515 10.3345 3.3703C9.78014 3.12777 9.22579 2.46968 8.74073 2.15786C6.76645 0.910563 1.67354 -1.79131 0.218562 1.77694C-0.716908 4.0286 1.60444 6.24561 2.40093 7.38916C2.99032 8.18584 3.75216 9.08646 4.16792 9.98728C4.41045 10.5759 4.47955 11.1999 4.72208 11.8234C5.27663 13.3472 5.79593 15.0452 6.52372 16.4657C6.90484 17.1931 7.3204 17.9551 7.80546 18.6134C8.08264 18.9943 8.5675 19.1677 8.67164 19.7912C8.18678 20.4841 8.15193 21.5235 7.87456 22.3895C6.62746 26.3042 7.11272 31.1542 8.87932 34.0295C9.43347 34.8953 10.7501 36.8013 12.5169 36.0735C14.076 35.45 13.7295 33.4754 14.1795 31.7432C14.2839 31.3271 14.2146 31.0503 14.4222 30.7731V30.8426C14.9073 31.8123 15.3922 32.748 15.8426 33.7179C16.9166 35.4152 18.7872 37.1822 20.3461 38.3602C21.1778 38.9834 21.8359 40.0575 22.8753 40.4386V40.3345H22.8058C22.5979 40.0227 22.2861 39.8843 22.0091 39.6415C21.3857 39.0183 20.6926 38.2561 20.2077 37.5631C18.7529 35.6229 17.4708 33.4752 16.3276 31.258C15.7735 30.1843 15.2882 29.0063 14.838 27.9324C14.6299 27.5163 14.6299 26.893 14.2837 26.6854C13.764 27.4474 13.0019 28.1057 12.6208 29.0409C11.9629 30.5306 11.8934 32.3667 11.6509 34.2719C11.5123 34.3069 11.5814 34.2719 11.5121 34.3415C10.4038 34.064 10.0227 32.921 9.60671 31.9509C8.5673 29.4914 8.39406 25.542 9.29508 22.7013C9.53761 21.9738 10.577 19.6875 10.1613 18.9945C9.95338 18.3362 9.26024 17.9551 8.87932 17.4356C8.42911 16.7773 7.94385 15.9462 7.63223 15.2184C6.8007 13.2784 6.38493 11.1304 5.48431 9.1904C5.06855 8.28958 4.34136 7.35451 3.75216 6.52298C3.09406 5.58771 2.36648 4.92922 1.84677 3.82071C1.67374 3.43979 1.43101 2.81615 1.70818 2.40038C1.77748 2.12321 1.91587 2.01947 2.19324 1.95017C2.64365 1.56886 3.92559 2.05391 4.37561 2.2618C5.65755 2.7811 6.7314 3.26656 7.80546 3.99395C8.29032 4.34042 8.81003 4.99871 9.43347 5.17195H10.1611C11.2698 5.41428 12.5167 5.24124 13.5561 5.55286C15.3924 6.14166 17.055 7.00784 18.5448 7.94331C23.0832 10.8186 26.8243 14.9066 29.3535 19.7912C29.7693 20.5877 29.9423 21.3157 30.3234 22.1468C31.0512 23.8445 31.9518 25.5766 32.679 27.2395C33.4066 28.8675 34.0994 30.5306 35.1388 31.8818C35.6585 32.609 37.7369 32.9903 38.6724 33.3714C39.3653 33.683 40.4394 33.9604 41.0628 34.3413C42.2406 35.0685 43.4184 35.9005 44.5271 36.6969C45.0815 37.1127 46.8134 37.9789 46.9176 38.6716V38.6716Z" fill="#273759"/>
<path d="M11.5812 8.56616C10.9924 8.56616 10.5768 8.63585 10.1611 8.7396V8.80889H10.2304C10.5077 9.36324 10.9924 9.74436 11.3387 10.2292C11.616 10.7834 11.8584 11.3379 12.1358 11.8923C12.1702 11.8574 12.2048 11.823 12.2048 11.823C12.6901 11.4763 12.9324 10.9222 12.9324 10.0906C12.7246 9.8483 12.6899 9.60577 12.5167 9.36324C12.309 9.01657 11.8584 8.84354 11.5812 8.56616V8.56616Z" fill="#273759"/>
</svg>
