<svg width="45" height="50" viewBox="0 0 45 50" fill="none" xmlns="http://www.w3.org/2000/svg">
<path d="M22.17 50C21.4954 50.0002 20.8327 49.8229 20.2485 49.4857L14.1341 45.866C13.2216 45.3553 13.6663 45.1749 13.9681 45.0696C14.9386 44.7697 15.8678 44.3498 16.7342 43.8196C16.8067 43.786 16.8866 43.7715 16.9663 43.7775C17.0459 43.7834 17.1228 43.8096 17.1895 43.8535L21.8878 46.6446C21.9753 46.6909 22.0728 46.7151 22.1717 46.7151C22.2707 46.7151 22.3682 46.6909 22.4557 46.6446L40.7774 36.0694C40.8631 36.0181 40.934 35.9453 40.9832 35.8583C41.0323 35.7713 41.058 35.673 41.0577 35.573V14.4191C41.0578 14.3176 41.0317 14.2178 40.982 14.1293C40.9322 14.0408 40.8605 13.9665 40.7738 13.9138L22.4521 3.34757C22.3657 3.29891 22.2682 3.27335 22.1691 3.27335C22.0699 3.27335 21.9724 3.29891 21.886 3.34757L3.57506 13.9174C3.48772 13.969 3.41519 14.0423 3.36451 14.1303C3.31383 14.2182 3.28671 14.3177 3.28577 14.4191V35.5641C3.28602 35.6638 3.31278 35.7617 3.3633 35.8476C3.41382 35.9336 3.48628 36.0046 3.57328 36.0534L8.59835 38.9534C11.3216 40.3141 12.9895 38.7106 12.9895 37.0998V16.2227C12.9895 16.0807 13.0459 15.9444 13.1464 15.8439C13.2469 15.7435 13.3831 15.687 13.5252 15.687H15.8467C15.9887 15.687 16.125 15.7435 16.2255 15.8439C16.3259 15.9444 16.3824 16.0807 16.3824 16.2227V37.1016C16.3824 40.7356 14.4038 42.816 10.9573 42.816C9.47046 42.8419 8.00693 42.4442 6.73761 41.6695L1.92147 38.907C1.3368 38.5665 0.851662 38.0786 0.514498 37.492C0.177334 36.9054 -6.47268e-05 36.2407 1.26998e-05 35.5641V14.4191C-0.00172515 13.7415 0.174923 13.0754 0.512205 12.4876C0.849487 11.8999 1.33552 11.4113 1.92147 11.0709L20.2449 0.49217C20.8352 0.16925 21.4972 0 22.17 0C22.8428 0 23.5047 0.16925 24.095 0.49217L42.4167 11.0709C43.0013 11.4107 43.4865 11.8979 43.824 12.4839C44.1615 13.0698 44.3394 13.734 44.3399 14.4102V35.5641C44.3389 36.2407 44.1609 36.9052 43.8235 37.4917C43.4861 38.0781 43.0011 38.566 42.4167 38.907L24.095 49.4857C23.5097 49.8234 22.8457 50.0008 22.17 50V50Z" fill="#273759"/>
<path d="M18.6948 28.4871C18.6948 28.345 18.7513 28.2087 18.8517 28.1082C18.9522 28.0078 19.0885 27.9513 19.2305 27.9513H21.6002C21.7268 27.9517 21.8492 27.997 21.9456 28.079C22.0421 28.1611 22.1063 28.2746 22.127 28.3996C22.4842 30.8121 23.5556 32.0282 28.4003 32.0282C32.2593 32.0282 33.904 31.155 33.904 29.1067C33.904 27.9263 33.4379 27.0495 27.4396 26.462C22.4252 25.9656 19.3252 24.8549 19.3252 20.8477C19.3252 17.1512 22.4413 14.9458 27.6646 14.9458C33.5343 14.9458 36.4397 16.9833 36.8076 21.3548C36.8132 21.4278 36.8038 21.5012 36.78 21.5704C36.7561 21.6396 36.7184 21.7032 36.669 21.7572C36.6196 21.8113 36.5597 21.8546 36.493 21.8846C36.4262 21.9146 36.354 21.9306 36.2808 21.9316H33.895C33.7753 21.9299 33.6597 21.8882 33.5665 21.8131C33.4732 21.738 33.4079 21.6339 33.3807 21.5173C32.8111 18.9798 31.4164 18.1691 27.6664 18.1691C23.452 18.1691 22.9627 19.6369 22.9627 20.737C22.9627 22.0691 23.5413 22.4584 29.2307 23.2102C34.8611 23.9549 37.5362 25.0084 37.5362 28.9656C37.5362 32.9586 34.2075 35.2443 28.4021 35.2443C20.3752 35.255 18.6948 31.5746 18.6948 28.4871V28.4871Z" fill="#273759"/>
</svg>
