<svg width="50" height="50" viewBox="0 0 50 50" fill="none" xmlns="http://www.w3.org/2000/svg">
<path d="M49.7955 28.1744C51.5453 14.477 41.8719 1.9541 28.1994 0.204492C14.527 -1.54531 1.9541 8.12813 0.204492 21.8006C-1.54531 35.4731 8.12813 48.0209 21.8006 49.7955C35.4981 51.5453 48.0209 41.8719 49.7955 28.1744Z" fill="#273759"/>
<path d="M34.0236 16.0515L23.4753 26.5998L20.5007 23.6252C30.874 13.2521 31.8988 14.1519 34.0234 16.0515H34.0236Z" fill="white"/>
<path d="M23.4752 26.8495C23.4002 26.8495 23.3502 26.8245 23.3002 26.7745L20.3008 23.8001C20.2771 23.7776 20.2582 23.7504 20.2454 23.7204C20.2325 23.6903 20.2258 23.6579 20.2258 23.6252C20.2258 23.5925 20.2325 23.5602 20.2454 23.5301C20.2582 23.5 20.2771 23.4729 20.3008 23.4503C30.8488 12.9021 31.9486 13.9019 34.1732 15.9015C34.2232 15.9515 34.2482 16.0015 34.2482 16.0765C34.2482 16.1515 34.2232 16.2015 34.1732 16.2515L23.6252 26.7745C23.6002 26.8245 23.5252 26.8495 23.4752 26.8495V26.8495ZM20.8508 23.6251L23.4752 26.2497L33.6484 16.0765C31.7988 14.4269 30.5488 13.9269 20.8508 23.6253V23.6251Z" fill="#273759"/>
<path d="M26.4994 29.6243L23.625 26.7497L34.173 16.2017C36.9977 19.0513 32.7734 23.6753 26.4994 29.6243Z" fill="white"/>
<path d="M26.4998 29.8739C26.4248 29.8739 26.3748 29.8489 26.325 29.7989L23.4504 26.9243C23.4004 26.8743 23.4004 26.8243 23.4004 26.7493C23.4004 26.6744 23.4254 26.6243 23.4754 26.5744L34.0236 16.0262C34.0462 16.0025 34.0733 15.9836 34.1034 15.9707C34.1335 15.9578 34.1659 15.9512 34.1986 15.9512C34.2314 15.9512 34.2638 15.9578 34.2938 15.9707C34.3239 15.9836 34.3511 16.0025 34.3736 16.0262C34.6928 16.3215 34.9449 16.6818 35.1131 17.0828C35.2812 17.4838 35.3615 17.9162 35.3484 18.3508C35.2984 21.1254 32.1492 24.6496 26.7 29.7989C26.625 29.8489 26.55 29.8739 26.5 29.8739H26.4998ZM23.9754 26.7493C25.575 28.3741 26.25 29.0239 26.4998 29.2739C30.699 25.2746 34.7732 21.1754 34.7984 18.3508C34.8234 17.701 34.5734 17.051 34.1484 16.5512L23.9754 26.7493V26.7493Z" fill="#273759"/>
<path d="M20.5507 23.7001L22.6754 25.8247C22.7254 25.8747 22.7254 25.9247 22.6754 25.9747C22.6504 25.9997 22.6504 25.9997 22.6254 25.9997L18.2261 26.9495C18.0011 26.9745 17.8011 26.8245 17.7511 26.5997C17.7261 26.4747 17.7761 26.3497 17.8511 26.2747L20.4007 23.7251C20.4507 23.6751 20.5257 23.6501 20.5507 23.7001V23.7001Z" fill="white"/>
<path d="M18.151 27.1999C17.776 27.1999 17.5012 26.8999 17.5012 26.5251C17.5012 26.3501 17.5762 26.1751 17.7012 26.0501L20.2506 23.5005C20.4006 23.3755 20.6006 23.3755 20.7506 23.5005L22.8752 25.6251C23.0252 25.7501 23.0252 25.9751 22.8752 26.1251C22.8252 26.1751 22.7752 26.2001 22.7002 26.2251L18.301 27.1749C18.251 27.1749 18.201 27.1999 18.151 27.1999ZM20.4756 23.9755L18.026 26.4251C17.976 26.4751 17.951 26.5501 18.001 26.6251C18.026 26.7001 18.101 26.7249 18.176 26.7001L22.3002 25.8001L20.4756 23.9755V23.9755Z" fill="#273759"/>
<path d="M39.5973 10.2026C37.9977 8.65281 35.4231 8.70281 33.8735 10.3276C32.3237 11.9522 32.3737 14.5018 33.9985 16.0514C34.6398 16.6711 35.4681 17.0611 36.3543 17.1606C37.2404 17.2601 38.1346 17.0635 38.8973 16.6014L36.0477 13.7518L39.5971 10.2026H39.5973Z" fill="white"/>
<path d="M36.798 17.4261C34.4234 17.4261 32.4988 15.5015 32.4988 13.1269C32.4988 10.7522 34.4234 8.82764 36.798 8.82764C37.8976 8.82764 38.9726 9.25264 39.7726 10.0274C39.8224 10.0774 39.8474 10.1274 39.8474 10.2024C39.8474 10.2774 39.8224 10.3274 39.7724 10.3774L36.398 13.7517L39.0476 16.4013C39.1476 16.5013 39.1476 16.6513 39.0476 16.7513L38.9976 16.8013C38.3476 17.2011 37.5728 17.4263 36.798 17.4263V17.4261ZM36.798 9.35264C34.6984 9.35264 32.9986 11.0522 33.0236 13.1519C33.0236 15.2515 34.7234 16.9513 36.823 16.9263C37.3978 16.9263 37.9728 16.8013 38.4976 16.5263L35.8732 13.9267C35.8232 13.8767 35.7982 13.8267 35.7982 13.7517C35.7982 13.6769 35.8232 13.6267 35.8732 13.5769L39.2226 10.2272C38.5476 9.65244 37.6978 9.35264 36.798 9.35264V9.35264Z" fill="#273759"/>
<path d="M39.6721 10.278L39.6221 10.228L36.0479 13.7522L38.8723 16.5769C39.1473 16.4019 39.4221 16.2019 39.6471 15.9769C40.0258 15.6059 40.3271 15.1635 40.5335 14.6753C40.74 14.1871 40.8475 13.6627 40.8498 13.1327C40.8522 12.6026 40.7492 12.0773 40.5471 11.5873C40.3449 11.0973 40.0475 10.6523 39.6721 10.278V10.278Z" fill="white"/>
<path d="M38.8973 16.8515C38.8223 16.8515 38.7723 16.8265 38.7223 16.7765L35.8727 13.9269C35.8229 13.8769 35.7979 13.8269 35.7979 13.7519C35.7979 13.6771 35.8229 13.6269 35.8729 13.5771L39.4221 10.0277C39.4446 10.004 39.4718 9.98508 39.5019 9.97218C39.532 9.95929 39.5643 9.95264 39.5971 9.95264C39.6298 9.95264 39.6622 9.95929 39.6923 9.97218C39.7224 9.98508 39.7495 10.004 39.7721 10.0277L39.8471 10.0777C41.5219 11.7523 41.5219 14.4519 39.8721 16.1515C39.6221 16.4015 39.3473 16.6265 39.0473 16.8015C38.9723 16.8265 38.9223 16.8515 38.8973 16.8515V16.8515ZM36.3977 13.7519L38.9223 16.2765C39.1223 16.1515 39.3223 15.9765 39.4721 15.8267C40.8969 14.4019 40.9719 12.0773 39.5971 10.5775L36.3979 13.7519H36.3977Z" fill="#273759"/>
<path d="M34.4482 16.5016C34.1597 16.2136 33.7686 16.0518 33.3609 16.0518C32.9532 16.0518 32.5621 16.2136 32.2736 16.5016L22.8503 25.9249L24.425 27.4997L34.3982 18.7513C35.0482 18.2013 35.098 17.2264 34.5482 16.5766C34.4982 16.5516 34.4732 16.5266 34.4482 16.5016V16.5016Z" fill="white"/>
<path d="M24.3998 27.7497C24.3248 27.7497 24.2748 27.7247 24.2248 27.6747L22.6502 26.0999C22.6265 26.0773 22.6076 26.0502 22.5947 26.0201C22.5818 25.99 22.5752 25.9576 22.5752 25.9249C22.5752 25.8922 22.5818 25.8598 22.5947 25.8297C22.6076 25.7996 22.6265 25.7725 22.6502 25.7499L32.0735 16.3267C32.2389 16.1603 32.4356 16.0283 32.6522 15.9382C32.8689 15.8481 33.1012 15.8018 33.3358 15.8018C33.5704 15.8018 33.8027 15.8481 34.0193 15.9382C34.2359 16.0283 34.4326 16.1603 34.5981 16.3267C34.7644 16.4921 34.8964 16.6888 34.9865 16.9054C35.0766 17.122 35.123 17.3543 35.123 17.589C35.123 17.8236 35.0766 18.0559 34.9865 18.2725C34.8964 18.4891 34.7644 18.6858 34.5981 18.8513L34.5231 18.9263L24.5498 27.6747C24.5248 27.7247 24.4748 27.7497 24.3998 27.7497V27.7497ZM23.2 25.9249L24.4248 27.1497L34.2231 18.5513C34.7731 18.1013 34.8231 17.2765 34.3731 16.7267C33.9233 16.1767 33.0983 16.1267 32.5485 16.5767C32.5235 16.6017 32.4985 16.6267 32.4485 16.6517L23.2 25.9251V25.9249Z" fill="#273759"/>
<path d="M15.6264 36.6478C15.5266 36.6978 15.4766 36.7979 15.5014 36.8979L15.9264 38.6975C16.0264 38.9475 15.8764 39.2475 15.6014 39.3225C15.4016 39.3975 15.1766 39.3225 15.0516 39.1725L12.302 36.4479L21.2754 27.4746L24.3751 27.5246L26.4747 29.6242C25.9747 30.049 22.9502 32.9736 15.6264 36.6478V36.6478Z" fill="white"/>
<path d="M15.427 39.5723C15.227 39.5723 15.027 39.4975 14.902 39.3475L12.1773 36.6229C12.1275 36.5729 12.1025 36.5229 12.1025 36.448C12.1025 36.373 12.1275 36.323 12.1775 36.273L21.1508 27.2996C21.2008 27.2496 21.2758 27.2246 21.3258 27.2246L24.4254 27.2746C24.5002 27.2746 24.5504 27.2996 24.6002 27.3496L26.6998 29.4492C26.7498 29.4992 26.7748 29.5742 26.7748 29.6492C26.7748 29.7242 26.7498 29.7742 26.6748 29.8242L26.4998 29.974C23.8504 32.2986 20.251 34.6232 15.7768 36.8479L16.2018 38.6227C16.2768 38.9475 16.1268 39.2975 15.8268 39.4723C15.6768 39.5475 15.5518 39.5725 15.427 39.5725V39.5723ZM12.6773 36.448L15.252 38.9975C15.327 39.1225 15.477 39.1725 15.6018 39.0975C15.7268 39.0225 15.7768 38.8725 15.7018 38.7475L15.277 36.9479C15.227 36.7229 15.327 36.5228 15.527 36.423C19.951 34.1984 23.5254 31.8988 26.15 29.6242L24.3004 27.7746L21.4258 27.7246L12.6773 36.448V36.448Z" fill="#273759"/>
<path d="M10.178 38.5974L12.3274 36.4478L15.527 39.647L10.4278 39.2972C10.2028 39.2722 10.0528 39.0722 10.078 38.8472C10.078 38.7472 10.103 38.6472 10.1778 38.5972L10.178 38.5974Z" fill="white"/>
<path d="M15.5268 39.8722L10.4026 39.5224C10.0276 39.4974 9.77757 39.1724 9.80277 38.7974C9.82777 38.6474 9.87777 38.4976 10.0028 38.3976L12.1524 36.248C12.1749 36.2243 12.2021 36.2055 12.2321 36.1926C12.2622 36.1797 12.2946 36.1731 12.3273 36.1731C12.36 36.1731 12.3924 36.1797 12.4224 36.1926C12.4525 36.2055 12.4796 36.2243 12.5022 36.248L15.7016 39.4472C15.7766 39.5224 15.8016 39.6224 15.7516 39.7222C15.7016 39.8222 15.6266 39.8722 15.5268 39.8722ZM12.3272 36.798L10.3526 38.7726C10.2776 38.8224 10.2776 38.9474 10.3526 38.9974C10.3776 39.0224 10.4026 39.0474 10.4526 39.0474L14.8768 39.3474L12.3272 36.7978V36.798ZM20.4008 28.6243C20.2508 28.6243 20.1508 28.4993 20.1508 28.3743C20.1508 28.2993 20.1758 28.2493 20.2258 28.1993L22.6504 25.7747C22.673 25.751 22.7001 25.7322 22.7302 25.7193C22.7603 25.7064 22.7927 25.6997 22.8254 25.6997C22.8582 25.6997 22.8905 25.7064 22.9206 25.7193C22.9507 25.7322 22.9779 25.751 23.0004 25.7747L24.575 27.3495C24.65 27.4245 24.675 27.4995 24.65 27.5995C24.625 27.6745 24.55 27.7495 24.45 27.7745L20.4508 28.6241H20.4008V28.6243ZM22.8254 26.2997L21.1756 27.9493L23.8752 27.3745L22.8254 26.2997V26.2997Z" fill="#273759"/>
<path d="M24.3749 27.5249L21.6255 28.1247C21.4255 28.1747 21.2255 28.0497 21.1755 27.8497C21.1505 27.7247 21.1755 27.5997 21.2755 27.4999L22.8003 25.9751L24.3749 27.5249V27.5249Z" fill="white"/>
<path d="M21.5755 28.3743C21.4932 28.3752 21.4115 28.3596 21.3353 28.3285C21.2591 28.2973 21.1899 28.2513 21.1317 28.1931C21.0735 28.1349 21.0275 28.0657 20.9963 27.9895C20.9652 27.9133 20.9496 27.8316 20.9505 27.7493C20.9505 27.5745 21.0255 27.4245 21.1255 27.2995L22.6503 25.7747C22.6728 25.751 22.7 25.7321 22.7301 25.7192C22.7602 25.7063 22.7925 25.6997 22.8253 25.6997C22.858 25.6997 22.8904 25.7063 22.9205 25.7192C22.9506 25.7321 22.9777 25.751 23.0003 25.7747L24.5749 27.3495C24.6499 27.4245 24.6749 27.4995 24.6499 27.5995C24.6249 27.6745 24.5499 27.7495 24.4499 27.7745L21.7005 28.3743H21.5755ZM22.8253 26.2997L21.4755 27.6493C21.4255 27.6995 21.4255 27.7495 21.4505 27.7993C21.4755 27.8493 21.5255 27.8743 21.6005 27.8743L23.9001 27.3743L22.8253 26.2997V26.2997ZM39.6971 12.677C39.6471 12.5272 39.4721 12.4522 39.3221 12.5022C39.1723 12.5522 39.0973 12.727 39.1473 12.8772C39.1473 12.902 39.1723 12.927 39.1723 12.952C39.3223 13.252 39.2723 13.627 39.0723 13.9019C38.9723 14.0269 38.9973 14.2019 39.0973 14.3019C39.2223 14.4019 39.3971 14.3769 39.4971 14.2519C39.8721 13.7769 39.9471 13.177 39.6971 12.677V12.677Z" fill="#273759"/>
</svg>
