<svg width="57" height="50" viewBox="0 0 57 50" fill="none" xmlns="http://www.w3.org/2000/svg">
<path d="M46.124 16.206C45.527 16.0008 44.9249 15.8107 44.3184 15.6359C44.4203 15.2188 44.5141 14.8068 44.5973 14.402C45.9643 7.75462 45.0706 2.39935 42.0183 0.636138C39.0918 -1.05419 34.3057 0.708361 29.472 4.92254C28.9956 5.33861 28.5299 5.76666 28.075 6.20631C27.7705 5.91396 27.4608 5.62729 27.1457 5.34644C22.0797 0.840513 17.002 -1.05858 13.953 0.709678C11.029 2.40527 10.1632 7.43959 11.3939 13.7394C11.5163 14.3634 11.6545 14.9841 11.8085 15.601C11.0897 15.8056 10.3962 16.0234 9.73241 16.2552C3.79299 18.3297 0 21.5806 0 24.9527C0 28.4354 4.07195 31.9286 10.2581 34.0468C10.7596 34.2178 11.2654 34.3763 11.7747 34.5221C11.6093 35.1865 11.4624 35.8554 11.3343 36.5281C10.161 42.7187 11.0772 47.634 13.9932 49.3188C17.005 51.0587 22.06 49.2705 26.982 44.9602C27.3811 44.6098 27.7715 44.2494 28.1526 43.8795C28.6451 44.3555 29.1508 44.8177 29.669 45.2656C34.4369 49.3755 39.1457 51.035 42.0588 49.3456C45.0678 47.6006 46.0458 42.3202 44.7762 35.8959C44.6761 35.3926 44.5639 34.8918 44.4397 34.3939C44.7947 34.2885 45.1432 34.1801 45.4828 34.0673C51.914 31.9328 56.0984 28.482 56.0984 24.9527C56.0984 21.5683 52.1829 18.2954 46.124 16.206ZM44.7292 31.7886C44.4224 31.8902 44.1078 31.9884 43.7869 32.0839C43.077 29.8322 42.1189 27.4381 40.9463 24.9643C42.0652 22.5496 42.9865 20.1859 43.6765 17.949C44.2504 18.1154 44.8073 18.2908 45.3441 18.4759C50.5354 20.2663 53.7019 22.9131 53.7019 24.9527C53.7019 27.125 50.2821 29.9453 44.7292 31.7886ZM42.4252 36.3622C42.9866 39.2028 43.0666 41.7712 42.6948 43.7791C42.3609 45.5835 41.6889 46.7862 40.858 47.268C39.0903 48.2932 35.3096 46.9607 31.2321 43.4457C30.7501 43.0294 30.2797 42.5996 29.8216 42.1571C31.4023 40.4253 32.9821 38.412 34.5239 36.176C37.2359 35.935 39.7981 35.5407 42.1215 35.0026C42.2335 35.4533 42.3347 35.9066 42.4252 36.3622ZM19.1252 47.0909C17.3979 47.7019 16.0222 47.7194 15.1906 47.2391C13.4211 46.2167 12.6854 42.2699 13.6888 36.976C13.8081 36.3503 13.9447 35.7282 14.0984 35.1102C16.3963 35.6195 18.9398 35.9856 21.6581 36.2065C23.2105 38.3945 24.8358 40.4055 26.4738 42.1666C26.1257 42.504 25.7693 42.8328 25.4051 43.1527C23.2284 45.0585 21.0474 46.4108 19.1252 47.0909ZM11.0334 31.7753C8.29795 30.8385 6.0389 29.6213 4.4905 28.2929C3.09899 27.0994 2.39667 25.9142 2.39667 24.9527C2.39667 22.9063 5.44198 20.2961 10.5213 18.5222C11.1377 18.307 11.7828 18.104 12.4523 17.9135C13.1544 20.2009 14.0752 22.5926 15.1865 25.011C14.0608 27.4653 13.1268 29.8953 12.4179 32.2096C11.9529 32.0763 11.4913 31.9313 11.0334 31.7753ZM13.7458 13.2783C12.6916 7.88083 13.3917 3.80934 15.1538 2.78746C17.0304 1.69907 21.1804 3.25088 25.5545 7.14169C25.8398 7.39598 26.1204 7.65543 26.3962 7.91987C24.7663 9.6732 23.1559 11.6693 21.6173 13.8444C18.979 14.0894 16.4534 14.4827 14.1315 15.0098C13.9885 14.4361 13.8599 13.8587 13.7458 13.2784V13.2783ZM37.9442 19.2642C37.3958 18.3152 36.827 17.3781 36.2382 16.4537C38.0281 16.6804 39.743 16.9814 41.3534 17.3493C40.8701 18.9017 40.2674 20.5247 39.5581 22.1887C39.0396 21.2031 38.5015 20.2281 37.9442 19.2642ZM28.0761 9.6357C29.1815 10.8354 30.2885 12.1747 31.3774 13.6279C29.1685 13.5234 26.9559 13.523 24.7471 13.6266C25.837 12.1868 26.9535 10.8492 28.0761 9.6357ZM18.1448 19.2806C17.5944 20.2368 17.0663 21.2058 16.5611 22.1867C15.8634 20.5286 15.2662 18.8982 14.7786 17.3238C16.3792 16.9651 18.086 16.6718 19.8645 16.4492C19.2692 17.3794 18.6958 18.3234 18.1448 19.2804V19.2806ZM19.9156 33.6269C18.0781 33.4214 16.3456 33.1433 14.7455 32.7942C15.2408 31.1917 15.8511 29.5267 16.5639 27.833C17.0711 28.8146 17.6014 29.7842 18.1542 30.7408C18.7226 31.7243 19.3112 32.6876 19.9156 33.6269ZM28.1423 40.4387C27.0063 39.2111 25.8734 37.8529 24.767 36.3922C25.8412 36.4344 26.9362 36.4559 28.0491 36.4559C29.1926 36.4559 30.3229 36.4302 31.4354 36.3806C30.3431 37.8676 29.2402 39.2278 28.1423 40.4387ZM39.5807 27.7465C40.3305 29.4588 40.9625 31.1151 41.4643 32.6902C39.838 33.062 38.0818 33.3615 36.2314 33.5839C36.8243 32.6422 37.3985 31.6889 37.9536 30.7243C38.5179 29.744 39.0605 28.7511 39.5807 27.7465ZM35.8778 29.5249C35.028 31.0037 34.1304 32.4544 33.1865 33.8747C31.4768 33.9961 29.7632 34.0563 28.0491 34.0554C26.3034 34.0554 24.6052 34.001 22.9701 33.8947C22.0016 32.4777 21.0869 31.0244 20.2281 29.538H20.2283C19.3735 28.0596 18.5751 26.5491 17.8347 25.01C18.5731 23.4705 19.3692 21.9593 20.2211 20.4797L20.2208 20.4799C21.0724 18.9999 21.9797 17.5529 22.9409 16.1419C24.6092 16.0155 26.32 15.9496 28.049 15.9496H28.0491C29.7861 15.9496 31.499 16.0161 33.1668 16.1434C34.1183 17.5523 35.0199 18.9943 35.8698 20.4669C36.7245 21.9433 37.5311 23.4471 38.2882 24.9759C37.5389 26.5204 36.7349 28.0377 35.8778 29.5249ZM40.8214 2.7159C42.6998 3.80122 43.4304 8.17782 42.2502 13.9172C42.1748 14.2835 42.0902 14.6564 41.9982 15.0346C39.6705 14.4964 37.1432 14.0962 34.4972 13.8475C32.9559 11.6485 31.3585 9.64933 29.7551 7.91856C30.1754 7.5128 30.6056 7.11754 31.0454 6.73316C35.1871 3.12267 39.0579 1.69709 40.8214 2.7159ZM28.0491 19.9344C30.8157 19.9344 33.0586 22.1812 33.0586 24.9527C33.0586 27.7241 30.8157 29.971 28.0491 29.971C25.2826 29.971 23.0398 27.7241 23.0398 24.9527C23.0398 22.1812 25.2826 19.9344 28.0491 19.9344Z" fill="#273759"/>
</svg>
