<svg width="54" height="50" viewBox="0 0 54 50" fill="none" xmlns="http://www.w3.org/2000/svg">
<path d="M36.8406 34.9196C38.8026 34.7184 40.2911 33.0429 40.2235 31.0321C40.1559 29.0214 38.4643 27.4128 36.4346 27.4128H36.2993C34.2017 27.4799 32.5779 29.2224 32.6456 31.3001C32.7133 32.3056 33.1191 33.1768 33.7281 33.78C31.4277 38.2707 27.9094 41.5549 22.6319 44.3028C19.046 46.1795 15.3248 46.8498 11.6035 46.3808C8.55876 45.9785 6.19066 44.6382 4.70193 42.4262C2.53695 39.142 2.33404 35.5896 4.1609 32.0375C5.44651 29.4905 7.47607 27.6138 8.76172 26.6754C8.49103 25.8042 8.08504 24.3297 7.88208 23.2574C-1.92863 30.2949 -0.913635 39.8123 2.06342 44.3028C4.2961 47.6542 8.82937 49.7319 13.8362 49.7319C15.1893 49.7319 16.5424 49.5978 17.8957 49.2629C26.5563 47.5871 33.1194 42.4932 36.8406 34.9196ZM48.7488 26.6086C43.6066 20.6434 36.0287 17.3593 27.3681 17.3593H26.2857C25.6768 16.1529 24.3911 15.3484 22.9703 15.3484H22.8349C20.7376 15.4156 19.1139 17.1581 19.1813 19.236C19.2491 21.2466 20.9405 22.8552 22.9703 22.8552H23.1055C24.594 22.7881 25.8796 21.8498 26.4209 20.5763H27.6387C32.781 20.5763 37.6525 22.0508 42.0505 24.9329C45.4334 27.1448 47.8692 30.0269 49.2223 33.512C50.3725 36.327 50.3048 39.075 49.0869 41.421C47.1925 44.9731 44.0126 46.9169 39.8177 46.9169C37.1112 46.9169 34.5401 46.1125 33.1869 45.5092C32.4427 46.1795 31.0894 47.2518 30.1421 47.9223C33.0516 49.2626 36.0287 50 38.8704 50C45.3657 50 50.1696 46.4476 51.9965 42.8954C53.9585 39.0079 53.8231 32.3056 48.7488 26.6086ZM14.3775 36.0587C14.4451 38.0695 16.1366 39.678 18.1664 39.678H18.3018C20.3992 39.6111 22.023 37.8684 21.9553 35.7907C21.8878 33.7798 20.1961 32.1714 18.1664 32.1714H18.0312C17.8957 32.1714 17.6926 32.1714 17.5576 32.2383C14.7835 27.6806 13.6333 22.7211 14.0393 17.3591C14.3098 13.3376 15.663 9.85231 18.0312 6.97021C19.9933 4.49031 23.7822 3.2839 26.3534 3.21703C33.5252 3.0829 36.5697 11.93 36.7728 15.4824C37.6525 15.6834 39.141 16.1526 40.1559 16.4878C39.3439 5.63007 32.5779 0 26.0827 0C19.9933 0 14.3775 4.35659 12.1446 10.7909C9.03233 19.3699 11.0621 27.6138 14.851 34.1152C14.5129 34.5842 14.3098 35.3216 14.3775 36.0589V36.0587Z" fill="#273759"/>
</svg>
