<svg width="67" height="50" viewBox="0 0 67 50" fill="none" xmlns="http://www.w3.org/2000/svg">
<path d="M57.4099 28.7431C55.084 28.7551 53.0623 29.3153 51.3698 30.1435C50.7485 28.9134 50.1275 27.8176 50.0181 27.0137C49.8961 26.0762 49.7501 25.5037 49.8961 24.3833C50.0423 23.263 50.6999 21.6675 50.6877 21.5459C50.6756 21.4241 50.5414 20.8517 49.2019 20.8397C47.8624 20.8274 46.7055 21.0954 46.5715 21.4484C46.4376 21.8015 46.1819 22.6053 46.0114 23.4332C45.78 24.6513 43.3324 28.9985 41.932 31.2758C41.4813 30.3872 41.0916 29.6076 41.0062 28.9866C40.8845 28.049 40.7383 27.4765 40.8845 26.3562C41.0308 25.2357 41.6884 23.6406 41.6761 23.5186C41.6639 23.397 41.5299 22.8245 40.1904 22.8125C38.8506 22.8002 37.6937 23.0681 37.56 23.4212C37.426 23.7746 37.2798 24.6025 36.9998 25.4063C36.7196 26.2101 33.4681 33.4683 32.6157 35.3434C32.2712 36.1024 31.9099 36.8535 31.5319 37.5964C31.5319 37.5964 31.5196 37.633 31.4831 37.6939C31.3644 37.9267 31.2426 38.1582 31.118 38.388V38.4C30.9351 38.7291 30.7404 39.0334 30.6429 39.0334C30.5698 39.0334 30.4358 38.1566 30.6672 36.9631C31.1543 34.4424 32.3112 30.5211 32.2992 30.3872C32.2992 30.314 32.5183 29.6321 31.5442 29.2788C30.5941 28.9257 30.2533 29.5101 30.1679 29.5101C30.0827 29.5101 30.0216 29.7173 30.0216 29.7173C30.0216 29.7173 31.0814 25.3089 28.0003 25.3089C26.0763 25.3089 23.4213 27.4156 22.1062 29.3153C20.611 30.129 19.1172 30.9449 17.6247 31.7631C16.9065 32.1651 16.1635 32.567 15.4693 32.9444C15.4205 32.8958 15.3719 32.8347 15.3231 32.7861C11.5966 28.804 4.70409 25.9908 4.99633 20.6449C5.10602 18.6963 5.77563 13.5815 18.2337 7.37092C28.4873 2.31697 36.6467 3.71731 38.0593 6.82275C40.0807 11.2557 33.6875 19.4879 23.0925 20.6812C19.0496 21.1319 16.9305 19.573 16.3949 18.9886C15.8347 18.3796 15.7493 18.343 15.5421 18.465C15.2013 18.6478 15.4205 19.1957 15.5421 19.5122C15.859 20.3401 17.1619 21.8015 19.3661 22.5203C21.3146 23.1533 26.0517 23.5066 31.7876 21.2901C38.2053 18.8058 43.2227 11.901 41.7493 6.11658C40.2755 0.246767 30.5332 -1.68946 21.3146 1.58626C15.8347 3.53502 9.89178 6.60364 5.61736 10.5981C0.539125 15.3473 -0.264723 19.4757 0.0640765 21.2051C1.24556 27.3425 9.70919 31.3369 13.0946 34.2961C12.9241 34.3935 12.7656 34.4789 12.6318 34.5521C10.939 35.3922 4.48472 38.7654 2.87728 42.3336C1.05073 46.3766 3.16978 49.2752 4.57011 49.6646C8.91763 50.8704 13.3869 48.7028 15.7858 45.1223C18.1848 41.542 17.8926 36.89 16.7845 34.7589C16.7723 34.7347 16.7602 34.7101 16.7357 34.6858C17.1742 34.4301 17.6247 34.1622 18.0632 33.9065C18.8691 33.4301 19.6852 32.9712 20.511 32.5302C20.0968 33.6629 19.7923 35.0146 19.6463 36.9631C19.4635 39.2527 20.401 42.2239 21.6311 43.3928C22.1792 43.9047 22.8246 43.9168 23.2388 43.9168C24.6757 43.9168 25.3213 42.7232 26.0398 41.3106C26.9164 39.5815 27.708 37.5721 27.708 37.5721C27.708 37.5721 26.7216 43.0035 29.4009 43.0035C30.375 43.0035 31.3613 41.7368 31.7998 41.0915V41.1035C31.7998 41.1035 31.8241 41.067 31.873 40.9818C31.9704 40.8236 32.0313 40.7259 32.0313 40.7259V40.7019C32.4209 40.0197 33.2979 38.4731 34.6008 35.9036C36.2813 32.5913 37.901 28.4509 37.901 28.4509C37.901 28.4509 38.0473 29.4616 38.5464 31.1422C38.8388 32.1286 39.4474 33.2123 39.9347 34.2596C39.5451 34.8078 39.3014 35.1121 39.3014 35.1121L39.3136 35.1243C38.9969 35.5383 38.6561 35.9887 38.2784 36.4275C36.9509 38.0104 35.368 39.8251 35.1487 40.3486C34.8928 40.9695 34.9539 41.4203 35.4412 41.7857C35.7943 42.0536 36.4274 42.09 37.0729 42.0536C38.2664 41.9682 39.1066 41.676 39.5205 41.4934C40.1661 41.2621 40.9211 40.9087 41.6273 40.3851C42.9305 39.423 43.7218 38.0469 43.6489 36.2326C43.6123 35.234 43.2835 34.2353 42.8816 33.2975C43.0036 33.1272 43.113 32.9567 43.2349 32.7861C45.2929 29.7781 46.8883 26.4778 46.8883 26.4778C46.8883 26.4778 47.0346 27.4885 47.5336 29.1693C47.7773 30.0217 48.2767 30.9473 48.7148 31.8483C46.7786 33.4195 45.5852 35.246 45.159 36.4395C44.3919 38.656 44.9884 39.6543 46.121 39.8858C46.6324 39.9954 47.3631 39.7518 47.899 39.5204C48.5809 39.3013 49.3847 38.9239 50.152 38.3634C51.4552 37.4016 52.7093 36.0618 52.6361 34.2476C52.5996 33.4195 52.3805 32.6033 52.076 31.8117C53.72 31.1301 55.839 30.7525 58.5423 31.069C64.3392 31.7509 65.4839 35.3677 65.2645 36.8903C65.0454 38.4123 63.8276 39.2404 63.426 39.4961C63.0237 39.752 62.89 39.8372 62.9266 40.0197C62.9752 40.2877 63.17 40.2757 63.5111 40.2268C63.9862 40.1417 66.5557 38.9968 66.6651 36.1958C66.8479 32.6156 63.438 28.7065 57.4099 28.7431ZM12.6927 43.8193C10.7684 45.9138 8.0895 46.7054 6.93256 46.0358C5.69048 45.3171 6.17755 42.2239 8.54001 40.0077C9.97687 38.656 11.828 37.4013 13.058 36.6343C13.338 36.4637 13.7522 36.2204 14.2516 35.9159C14.3366 35.867 14.3855 35.8427 14.3855 35.8427L14.6778 35.6599C15.5422 38.8262 14.7143 41.6152 12.6927 43.8193ZM26.6973 34.2961C26.0275 35.9281 24.6271 40.1051 23.7747 39.8737C23.044 39.6789 22.5932 36.5126 23.6284 33.3829C24.1521 31.8117 25.2602 29.9363 25.9058 29.2059C26.953 28.0367 28.11 27.6468 28.3899 28.1221C28.7432 28.7431 27.1113 33.2732 26.6973 34.2961ZM38.2542 39.8249C37.9739 39.9712 37.7062 40.0685 37.5843 39.9955C37.4991 39.9466 37.7062 39.7518 37.7062 39.7518C37.7062 39.7518 39.1554 38.1932 39.7276 37.4867C40.0567 37.0728 40.446 36.5858 40.8603 36.0376V36.1958C40.8603 38.0592 39.0577 39.3135 38.2539 39.8249H38.2542ZM47.1683 37.7913C46.9612 37.645 46.9977 37.1579 47.6919 35.6356C47.9598 35.0389 48.5929 34.0405 49.677 33.0783C49.7987 33.468 49.8841 33.8457 49.8718 34.1988C49.8595 36.5492 48.1792 37.4259 47.1683 37.7913Z" fill="#273759"/>
</svg>
