<svg width="84" height="50" viewBox="0 0 84 50" fill="none" xmlns="http://www.w3.org/2000/svg">
<path d="M41.6667 0C30.5557 0 23.611 5.55566 20.8333 16.6667C25 11.111 29.861 9.02767 35.4167 10.4167C38.5863 11.209 40.8519 13.5088 43.3597 16.054C47.445 20.2008 52.1729 25 62.5 25C73.611 25 80.5557 19.4443 83.3333 8.33333C79.1667 13.889 74.3057 15.9723 68.75 14.5833C65.5804 13.791 63.3148 11.4912 60.807 8.94596C56.7217 4.79915 51.9938 0 41.6667 0ZM20.8333 25C9.72233 25 2.77767 30.5557 0 41.6667C4.16667 36.111 9.02767 34.0277 14.5833 35.4167C17.7529 36.209 20.0186 38.5088 22.5264 41.054C26.6117 45.2008 31.3395 50 41.6667 50C52.7777 50 59.7223 44.4443 62.5 33.3333C58.3333 38.889 53.4723 40.9723 47.9167 39.5833C44.7471 38.791 42.4814 36.4912 39.9736 33.946C35.8883 29.7992 31.1605 25 20.8333 25Z" fill="#273759"/>
</svg>
