<svg width="50" height="50" viewBox="0 0 50 50" fill="none" xmlns="http://www.w3.org/2000/svg">
<path d="M0 25V50H50V0H0V25Z" fill="#273759"/>
<path d="M11.0571 25.1661L11.0413 27.2136H17.5491V45.7058H22.1522V27.2136H28.6602V25.2058C28.6602 24.0944 28.6364 23.1659 28.6047 23.1421C28.5809 23.1105 24.6204 23.0944 19.819 23.1025L11.0807 23.1263L11.0571 25.1659V25.1661ZM40.3452 23.0681C41.6149 23.3855 42.5832 23.9489 43.4721 24.8696C43.9325 25.3618 44.6149 26.2585 44.6706 26.4728C44.6862 26.5362 42.5118 27.9966 41.1944 28.8142C41.1467 28.8458 40.9561 28.6396 40.7418 28.322C40.0991 27.3855 39.4245 26.9808 38.3926 26.9093C36.877 26.8062 35.9006 27.5997 35.9086 28.9251C35.9086 29.3142 35.9641 29.5443 36.1229 29.8616C36.4563 30.5523 37.0752 30.965 39.0198 31.8062C42.5991 33.3458 44.1307 34.3616 45.0833 35.8062C46.1467 37.4173 46.3848 39.9888 45.6626 41.9015C44.869 43.9808 42.9008 45.3935 40.1307 45.8616C39.2737 46.0124 37.242 45.9886 36.3213 45.822C34.3135 45.465 32.4086 44.4728 31.234 43.1712C30.7737 42.6634 29.8768 41.3378 29.9325 41.2427C29.9563 41.2109 30.1625 41.0839 30.3926 40.9489C30.6149 40.822 31.4563 40.3378 32.2499 39.8777L33.6864 39.0443L33.9879 39.4888C34.4086 40.1314 35.3291 41.0124 35.8848 41.3062C37.4799 42.1474 39.6706 42.0284 40.7499 41.0601C41.2102 40.6396 41.4006 40.203 41.4006 39.5601C41.4006 38.9808 41.3292 38.7269 41.0276 38.2903C40.6389 37.7347 39.8452 37.2665 37.5911 36.2903C35.0118 35.179 33.9006 34.4888 32.8848 33.3935C32.2975 32.7587 31.7418 31.7427 31.5118 30.8935C31.3213 30.187 31.2735 28.4173 31.4245 27.703C31.9563 25.2109 33.8372 23.4728 36.5514 22.957C37.4323 22.7903 39.4799 22.8538 40.3452 23.0681V23.0681Z" fill="white"/>
</svg>
